<svg viewBox="0 0 175 52" xmlns:xlink="http://www.w3.org/1999/xlink" xmlns="http://www.w3.org/2000/svg" width="175" height="52" fill="none"><path fill="#fff" d="m19.341 44.878.247-.251a1.545 1.545 0 0 0 .158-2.005L7.302 25.537 19.746 8.454a1.545 1.545 0 0 0-.158-2.004l-.247-.251L0 25.537l19.341 19.34ZM155.003 45.533l-.257-.26a1.602 1.602 0 0 1-.162-2.06l12.867-17.663-12.867-17.676a1.607 1.607 0 0 1 .162-2.06l.257-.257L175 25.55l-19.997 19.983ZM29.926 0 21 50.68l2.228.392L32.154.392 29.926 0ZM40.248 30.683a3.192 3.192 0 0 1-.745-1.628v8.105h-4.61V13.257c.2-.042.403-.07.607-.086.343-.03.656-.048.95-.048 2.033 0 3.05.904 3.053 2.712v12.136c.145-.63.447-1.212.879-1.693l3.594-4.12c.356-.438.788-.81 1.273-1.098.412-.22.873-.33 1.34-.323a4.601 4.601 0 0 1 2.914 1.154l-5.527 6.385 6.34 8.407a4.597 4.597 0 0 1-2.677.817 4.665 4.665 0 0 1-2.06-.391 4.837 4.837 0 0 1-1.576-1.373l-3.755-5.053ZM67.031 29.055c.04 1.602-.29 3.191-.964 4.645a6.71 6.71 0 0 1-2.747 2.97 8.65 8.65 0 0 1-4.29.998c-2.53 0-4.49-.757-5.882-2.272-1.391-1.515-2.087-3.594-2.087-6.238a9.502 9.502 0 0 1 1.03-4.524 7.14 7.14 0 0 1 2.846-2.97 8.504 8.504 0 0 1 4.223-1.03c2.53 0 4.476.74 5.836 2.221 1.359 1.481 2.038 3.548 2.035 6.2Zm-4.645.035c0-3.275-1.096-4.914-3.288-4.916a2.877 2.877 0 0 0-2.544 1.321c-.586.881-.879 2.091-.879 3.629 0 1.627.287 2.886.862 3.776a2.802 2.802 0 0 0 2.51 1.312c2.226 0 3.34-1.708 3.34-5.122ZM82.287 37.16a1.16 1.16 0 0 1-.913-.374 1.449 1.449 0 0 1-.343-1.03 4.714 4.714 0 0 1-1.882 1.305c-.836.333-1.73.5-2.63.49-2.08 0-3.682-.7-4.805-2.1-1.124-1.4-1.685-3.43-1.682-6.09-.043-1.616.24-3.223.83-4.727a6.523 6.523 0 0 1 2.355-2.97 6.234 6.234 0 0 1 3.53-1.03 5.95 5.95 0 0 1 2.21.423 4.855 4.855 0 0 1 1.717 1.15v-8.95a3.43 3.43 0 0 1 .593-.086c.344-.03.687-.048.965-.048 2.037 0 3.054.904 3.052 2.712V37.16h-2.997Zm-7.525-8.036c0 1.83.288 3.16.865 3.986.577.826 1.475 1.238 2.695 1.235.6.028 1.197-.119 1.716-.422a1.294 1.294 0 0 0 .663-1.136v-7.628a3.48 3.48 0 0 0-1.119-.731c-.433-.19-.9-.288-1.373-.289-2.298 0-3.447 1.662-3.447 4.985ZM94.062 22.615a5.393 5.393 0 0 1 1.967-1.424 6.455 6.455 0 0 1 2.644-.543c2.011 0 3.571.7 4.679 2.101 1.107 1.4 1.661 3.412 1.661 6.035 0 2.872-.593 5.07-1.778 6.595-1.186 1.524-2.83 2.287-4.933 2.29a6.284 6.284 0 0 1-1.765-.237 5.701 5.701 0 0 1-1.459-.646 2.57 2.57 0 0 1-.844-.745v8.51h-4.59v-23.43l.408-.064c.372-.048.745-.07 1.12-.07 1.672 0 2.636.543 2.89 1.628Zm6.138 6.272c0-3.186-1.13-4.78-3.392-4.782a3.3 3.3 0 0 0-1.864.46 1.448 1.448 0 0 0-.686 1.27v7.189c.332.317.724.565 1.153.727.452.188.936.286 1.425.289 2.236 0 3.354-1.718 3.354-5.153h.01ZM113.31 15.698a2.34 2.34 0 0 1-.71 1.747 2.61 2.61 0 0 1-3.543 0 2.376 2.376 0 0 1-.687-1.747 2.413 2.413 0 0 1 .687-1.761 2.483 2.483 0 0 1 3.843.37c.273.412.417.896.414 1.39h-.004Zm-.034 21.665c-.158.09-.686.137-1.627.137-1.064 0-1.828-.229-2.29-.686-.462-.458-.691-1.17-.686-2.136V21.122c.2-.04.403-.068.607-.083.316-.033.633-.05.951-.051 2.032 0 3.05.893 3.052 2.678l-.007 13.697ZM122.212 37.363a5.933 5.933 0 0 1-1.696.137c-1.943 0-2.914-.938-2.914-2.815V13.257c.201-.042.405-.07.611-.086.343-.03.655-.048.947-.048 2.035 0 3.052.893 3.052 2.678v21.562ZM141.515 29.055a10.394 10.394 0 0 1-.964 4.645 6.696 6.696 0 0 1-2.747 2.97 8.635 8.635 0 0 1-4.287.998c-2.534 0-4.495-.757-5.884-2.272-1.39-1.515-2.084-3.594-2.084-6.238a9.5 9.5 0 0 1 1.03-4.524 7.144 7.144 0 0 1 2.842-2.97 8.502 8.502 0 0 1 4.219-1.03c2.531 0 4.477.74 5.836 2.221 1.36 1.481 2.039 3.548 2.039 6.2Zm-4.644.035c0-3.275-1.096-4.914-3.286-4.916a2.877 2.877 0 0 0-2.544 1.321c-.588.881-.882 2.091-.882 3.629 0 1.627.289 2.886.865 3.776a2.8 2.8 0 0 0 2.493 1.325c2.238-.009 3.356-1.72 3.354-5.135Z"/><path fill="#fff" d="M145.415 34.72a9.47 9.47 0 0 1-.374-2.918v-15.73l.511-.069c.349-.041.7-.064 1.051-.068 2.032 0 3.049.904 3.052 2.712v2.375h4.744v3.457h-4.744v7.257c0 1.582.644 2.373 1.932 2.373a3.232 3.232 0 0 0 1.391-.344 4.379 4.379 0 0 0 1.219-.848c.317.432.595.892.83 1.373.135.288.21.6.22.917a1.61 1.61 0 0 1-.711 1.219 5.104 5.104 0 0 1-1.816.9 8.425 8.425 0 0 1-2.403.322c-2.545.014-4.179-.963-4.902-2.928Z"/></svg>